<mxfile host="Electron" modified="2023-10-17T18:35:31.359Z" agent="Mozilla/5.0 (Windows NT 10.0; Win64; x64) AppleWebKit/537.36 (KHTML, like Gecko) draw.io/22.0.0 Chrome/114.0.5735.289 Electron/25.8.3 Safari/537.36" etag="tLrWVwTJo0Js5MvzvFJj" version="22.0.0" type="device">
  <diagram name="Page-1" id="ijIoo2txcSmLpSjnDCax">
    <mxGraphModel dx="3128" dy="1640" grid="1" gridSize="10" guides="1" tooltips="1" connect="1" arrows="1" fold="1" page="1" pageScale="1" pageWidth="1100" pageHeight="850" math="0" shadow="0">
      <root>
        <mxCell id="0" />
        <mxCell id="1" parent="0" />
        <mxCell id="Zzn7-beLQOJeG9ghUKCm-1" value="DataBroker" style="rounded=1;whiteSpace=wrap;html=1;fillColor=#008a00;fontColor=#ffffff;strokeColor=#005700;" parent="1" vertex="1">
          <mxGeometry x="860" y="170" width="120" height="60" as="geometry" />
        </mxCell>
        <mxCell id="Zzn7-beLQOJeG9ghUKCm-2" value="OpenAIBroker" style="rounded=1;whiteSpace=wrap;html=1;fillColor=#008a00;fontColor=#ffffff;strokeColor=#005700;" parent="1" vertex="1">
          <mxGeometry x="860" y="380" width="120" height="60" as="geometry" />
        </mxCell>
        <mxCell id="Zzn7-beLQOJeG9ghUKCm-3" value="SQLParserBroker" style="rounded=1;whiteSpace=wrap;html=1;fillColor=#fa6800;fontColor=#000000;strokeColor=#C73500;" parent="1" vertex="1">
          <mxGeometry x="860" y="520" width="120" height="60" as="geometry" />
        </mxCell>
        <mxCell id="Zzn7-beLQOJeG9ghUKCm-4" value="DataBroker" style="rounded=1;whiteSpace=wrap;html=1;fillColor=#008a00;fontColor=#ffffff;strokeColor=#005700;" parent="1" vertex="1">
          <mxGeometry x="860" y="620" width="120" height="60" as="geometry" />
        </mxCell>
        <mxCell id="Zzn7-beLQOJeG9ghUKCm-9" style="edgeStyle=orthogonalEdgeStyle;rounded=0;orthogonalLoop=1;jettySize=auto;html=1;entryX=0;entryY=0.5;entryDx=0;entryDy=0;" parent="1" source="Zzn7-beLQOJeG9ghUKCm-5" target="Zzn7-beLQOJeG9ghUKCm-1" edge="1">
          <mxGeometry relative="1" as="geometry" />
        </mxCell>
        <mxCell id="Zzn7-beLQOJeG9ghUKCm-5" value="DataService" style="rounded=1;whiteSpace=wrap;html=1;fillColor=#008a00;fontColor=#ffffff;strokeColor=#005700;" parent="1" vertex="1">
          <mxGeometry x="690" y="170" width="120" height="60" as="geometry" />
        </mxCell>
        <mxCell id="Zzn7-beLQOJeG9ghUKCm-10" style="edgeStyle=orthogonalEdgeStyle;rounded=0;orthogonalLoop=1;jettySize=auto;html=1;entryX=0;entryY=0.5;entryDx=0;entryDy=0;" parent="1" source="Zzn7-beLQOJeG9ghUKCm-6" target="Zzn7-beLQOJeG9ghUKCm-2" edge="1">
          <mxGeometry relative="1" as="geometry" />
        </mxCell>
        <mxCell id="Zzn7-beLQOJeG9ghUKCm-6" value="AIService" style="rounded=1;whiteSpace=wrap;html=1;fillColor=#008a00;fontColor=#ffffff;strokeColor=#005700;" parent="1" vertex="1">
          <mxGeometry x="690" y="380" width="120" height="60" as="geometry" />
        </mxCell>
        <mxCell id="Zzn7-beLQOJeG9ghUKCm-11" style="edgeStyle=orthogonalEdgeStyle;rounded=0;orthogonalLoop=1;jettySize=auto;html=1;entryX=0;entryY=0.5;entryDx=0;entryDy=0;" parent="1" source="Zzn7-beLQOJeG9ghUKCm-7" target="Zzn7-beLQOJeG9ghUKCm-3" edge="1">
          <mxGeometry relative="1" as="geometry" />
        </mxCell>
        <mxCell id="Zzn7-beLQOJeG9ghUKCm-7" value="SQLParserService" style="rounded=1;whiteSpace=wrap;html=1;" parent="1" vertex="1">
          <mxGeometry x="690" y="520" width="120" height="60" as="geometry" />
        </mxCell>
        <mxCell id="Zzn7-beLQOJeG9ghUKCm-12" style="edgeStyle=orthogonalEdgeStyle;rounded=0;orthogonalLoop=1;jettySize=auto;html=1;entryX=0;entryY=0.5;entryDx=0;entryDy=0;" parent="1" source="Zzn7-beLQOJeG9ghUKCm-8" target="Zzn7-beLQOJeG9ghUKCm-4" edge="1">
          <mxGeometry relative="1" as="geometry" />
        </mxCell>
        <mxCell id="Zzn7-beLQOJeG9ghUKCm-8" value="QueryService" style="rounded=1;whiteSpace=wrap;html=1;" parent="1" vertex="1">
          <mxGeometry x="690" y="620" width="120" height="60" as="geometry" />
        </mxCell>
        <mxCell id="Zzn7-beLQOJeG9ghUKCm-17" style="edgeStyle=orthogonalEdgeStyle;rounded=0;orthogonalLoop=1;jettySize=auto;html=1;entryX=0;entryY=0.5;entryDx=0;entryDy=0;" parent="1" source="Zzn7-beLQOJeG9ghUKCm-13" target="Zzn7-beLQOJeG9ghUKCm-5" edge="1">
          <mxGeometry relative="1" as="geometry" />
        </mxCell>
        <mxCell id="Zzn7-beLQOJeG9ghUKCm-13" value="DataProcessingService" style="rounded=1;whiteSpace=wrap;html=1;fillColor=#008a00;fontColor=#ffffff;strokeColor=#005700;" parent="1" vertex="1">
          <mxGeometry x="470" y="170" width="170" height="60" as="geometry" />
        </mxCell>
        <mxCell id="Zzn7-beLQOJeG9ghUKCm-18" style="edgeStyle=orthogonalEdgeStyle;rounded=0;orthogonalLoop=1;jettySize=auto;html=1;entryX=0;entryY=0.5;entryDx=0;entryDy=0;" parent="1" source="Zzn7-beLQOJeG9ghUKCm-14" target="Zzn7-beLQOJeG9ghUKCm-6" edge="1">
          <mxGeometry relative="1" as="geometry" />
        </mxCell>
        <mxCell id="Zzn7-beLQOJeG9ghUKCm-14" value="AIProcessingService" style="rounded=1;whiteSpace=wrap;html=1;fillColor=#008a00;fontColor=#ffffff;strokeColor=#005700;" parent="1" vertex="1">
          <mxGeometry x="470" y="380" width="170" height="60" as="geometry" />
        </mxCell>
        <mxCell id="Zzn7-beLQOJeG9ghUKCm-19" style="edgeStyle=orthogonalEdgeStyle;rounded=0;orthogonalLoop=1;jettySize=auto;html=1;entryX=0;entryY=0.5;entryDx=0;entryDy=0;" parent="1" source="Zzn7-beLQOJeG9ghUKCm-15" target="Zzn7-beLQOJeG9ghUKCm-7" edge="1">
          <mxGeometry relative="1" as="geometry" />
        </mxCell>
        <mxCell id="Zzn7-beLQOJeG9ghUKCm-15" value="SQLParser&lt;br&gt;ProccessingService" style="rounded=1;whiteSpace=wrap;html=1;" parent="1" vertex="1">
          <mxGeometry x="470" y="520" width="170" height="60" as="geometry" />
        </mxCell>
        <mxCell id="Zzn7-beLQOJeG9ghUKCm-20" style="edgeStyle=orthogonalEdgeStyle;rounded=0;orthogonalLoop=1;jettySize=auto;html=1;entryX=0;entryY=0.5;entryDx=0;entryDy=0;" parent="1" source="Zzn7-beLQOJeG9ghUKCm-16" target="Zzn7-beLQOJeG9ghUKCm-8" edge="1">
          <mxGeometry relative="1" as="geometry" />
        </mxCell>
        <mxCell id="Zzn7-beLQOJeG9ghUKCm-16" value="QueryProcessingService" style="rounded=1;whiteSpace=wrap;html=1;" parent="1" vertex="1">
          <mxGeometry x="470" y="620" width="170" height="60" as="geometry" />
        </mxCell>
        <mxCell id="Txd0nRAgP_ufzT4PMgPh-10" style="edgeStyle=orthogonalEdgeStyle;rounded=0;orthogonalLoop=1;jettySize=auto;html=1;entryX=0;entryY=0.5;entryDx=0;entryDy=0;" edge="1" parent="1" source="Zzn7-beLQOJeG9ghUKCm-21" target="Txd0nRAgP_ufzT4PMgPh-2">
          <mxGeometry relative="1" as="geometry" />
        </mxCell>
        <mxCell id="Txd0nRAgP_ufzT4PMgPh-11" style="edgeStyle=orthogonalEdgeStyle;rounded=0;orthogonalLoop=1;jettySize=auto;html=1;" edge="1" parent="1" source="Zzn7-beLQOJeG9ghUKCm-21" target="Zzn7-beLQOJeG9ghUKCm-14">
          <mxGeometry relative="1" as="geometry" />
        </mxCell>
        <mxCell id="Zzn7-beLQOJeG9ghUKCm-21" value="SQLQuery&lt;br&gt;Orchestration Service" style="rounded=1;whiteSpace=wrap;html=1;strokeWidth=3;" parent="1" vertex="1">
          <mxGeometry x="250" y="320" width="140" height="60" as="geometry" />
        </mxCell>
        <mxCell id="Zzn7-beLQOJeG9ghUKCm-28" style="edgeStyle=orthogonalEdgeStyle;rounded=0;orthogonalLoop=1;jettySize=auto;html=1;entryX=0;entryY=0.5;entryDx=0;entryDy=0;" parent="1" source="Zzn7-beLQOJeG9ghUKCm-23" target="Zzn7-beLQOJeG9ghUKCm-15" edge="1">
          <mxGeometry relative="1" as="geometry" />
        </mxCell>
        <mxCell id="Zzn7-beLQOJeG9ghUKCm-29" style="edgeStyle=orthogonalEdgeStyle;rounded=0;orthogonalLoop=1;jettySize=auto;html=1;entryX=0;entryY=0.5;entryDx=0;entryDy=0;" parent="1" source="Zzn7-beLQOJeG9ghUKCm-23" target="Zzn7-beLQOJeG9ghUKCm-16" edge="1">
          <mxGeometry relative="1" as="geometry" />
        </mxCell>
        <mxCell id="Zzn7-beLQOJeG9ghUKCm-23" value="SQL Query&lt;br&gt;Orchestration Service" style="rounded=1;whiteSpace=wrap;html=1;" parent="1" vertex="1">
          <mxGeometry x="250" y="570" width="140" height="60" as="geometry" />
        </mxCell>
        <mxCell id="Txd0nRAgP_ufzT4PMgPh-12" style="edgeStyle=orthogonalEdgeStyle;rounded=0;orthogonalLoop=1;jettySize=auto;html=1;entryX=0;entryY=0.5;entryDx=0;entryDy=0;" edge="1" parent="1" source="Zzn7-beLQOJeG9ghUKCm-24" target="Zzn7-beLQOJeG9ghUKCm-21">
          <mxGeometry relative="1" as="geometry" />
        </mxCell>
        <mxCell id="Txd0nRAgP_ufzT4PMgPh-13" style="edgeStyle=orthogonalEdgeStyle;rounded=0;orthogonalLoop=1;jettySize=auto;html=1;entryX=0;entryY=0.5;entryDx=0;entryDy=0;" edge="1" parent="1" source="Zzn7-beLQOJeG9ghUKCm-24" target="Zzn7-beLQOJeG9ghUKCm-23">
          <mxGeometry relative="1" as="geometry" />
        </mxCell>
        <mxCell id="Zzn7-beLQOJeG9ghUKCm-24" value="Natural SQLQuery Coordination Service" style="rounded=1;whiteSpace=wrap;html=1;" parent="1" vertex="1">
          <mxGeometry x="80" y="435" width="120" height="60" as="geometry" />
        </mxCell>
        <mxCell id="Txd0nRAgP_ufzT4PMgPh-14" style="edgeStyle=orthogonalEdgeStyle;rounded=0;orthogonalLoop=1;jettySize=auto;html=1;entryX=0;entryY=0.5;entryDx=0;entryDy=0;" edge="1" parent="1" source="Zzn7-beLQOJeG9ghUKCm-32" target="Zzn7-beLQOJeG9ghUKCm-24">
          <mxGeometry relative="1" as="geometry" />
        </mxCell>
        <mxCell id="Zzn7-beLQOJeG9ghUKCm-32" value="Client" style="ellipse;shape=cloud;whiteSpace=wrap;html=1;" parent="1" vertex="1">
          <mxGeometry x="-100" y="425" width="120" height="80" as="geometry" />
        </mxCell>
        <mxCell id="Zzn7-beLQOJeG9ghUKCm-35" value="&lt;p style=&quot;line-height: 140%; font-size: 24px;&quot;&gt;&lt;span style=&quot;background-color: initial;&quot;&gt;Standard.AI.Data.EntityIntelligence&lt;/span&gt;&lt;br&gt;&lt;/p&gt;" style="text;html=1;strokeColor=none;fillColor=none;align=center;verticalAlign=middle;whiteSpace=wrap;rounded=0;" parent="1" vertex="1">
          <mxGeometry x="520" y="40" width="60" height="30" as="geometry" />
        </mxCell>
        <mxCell id="-9ZAO_HesUwj9xrey1F0-1" value="" style="rhombus;whiteSpace=wrap;html=1;fillColor=#fa6800;strokeColor=#FFFFFF;fontColor=#000000;" parent="1" vertex="1">
          <mxGeometry x="290" y="280" width="60" height="50" as="geometry" />
        </mxCell>
        <mxCell id="Txd0nRAgP_ufzT4PMgPh-3" style="edgeStyle=orthogonalEdgeStyle;rounded=0;orthogonalLoop=1;jettySize=auto;html=1;entryX=0;entryY=0.5;entryDx=0;entryDy=0;" edge="1" parent="1" source="Txd0nRAgP_ufzT4PMgPh-1" target="Txd0nRAgP_ufzT4PMgPh-6">
          <mxGeometry relative="1" as="geometry" />
        </mxCell>
        <mxCell id="Txd0nRAgP_ufzT4PMgPh-1" value="SchemaService" style="rounded=1;whiteSpace=wrap;html=1;fillColor=#008a00;fontColor=#ffffff;strokeColor=#005700;" vertex="1" parent="1">
          <mxGeometry x="690" y="270" width="120" height="60" as="geometry" />
        </mxCell>
        <mxCell id="Txd0nRAgP_ufzT4PMgPh-9" style="edgeStyle=orthogonalEdgeStyle;rounded=0;orthogonalLoop=1;jettySize=auto;html=1;entryX=0;entryY=0.5;entryDx=0;entryDy=0;exitX=0;exitY=0.5;exitDx=0;exitDy=0;" edge="1" parent="1" source="Txd0nRAgP_ufzT4PMgPh-2" target="Zzn7-beLQOJeG9ghUKCm-13">
          <mxGeometry relative="1" as="geometry">
            <Array as="points">
              <mxPoint x="430" y="300" />
              <mxPoint x="430" y="200" />
            </Array>
          </mxGeometry>
        </mxCell>
        <mxCell id="Txd0nRAgP_ufzT4PMgPh-2" value="SchemaProcessingService" style="rounded=1;whiteSpace=wrap;html=1;fillColor=#008a00;fontColor=#ffffff;strokeColor=#005700;" vertex="1" parent="1">
          <mxGeometry x="470" y="270" width="170" height="60" as="geometry" />
        </mxCell>
        <mxCell id="Txd0nRAgP_ufzT4PMgPh-4" style="edgeStyle=orthogonalEdgeStyle;rounded=0;orthogonalLoop=1;jettySize=auto;html=1;entryX=-0.03;entryY=0.491;entryDx=0;entryDy=0;entryPerimeter=0;" edge="1" parent="1" source="Txd0nRAgP_ufzT4PMgPh-2" target="Txd0nRAgP_ufzT4PMgPh-1">
          <mxGeometry relative="1" as="geometry" />
        </mxCell>
        <mxCell id="Txd0nRAgP_ufzT4PMgPh-6" value="DataBroker" style="rounded=1;whiteSpace=wrap;html=1;fillColor=#008a00;fontColor=#ffffff;strokeColor=#005700;" vertex="1" parent="1">
          <mxGeometry x="860" y="270" width="120" height="60" as="geometry" />
        </mxCell>
      </root>
    </mxGraphModel>
  </diagram>
</mxfile>
